<?xml version="1.0" standalone="no"?>
<!DOCTYPE svg PUBLIC "-//W3C//DTD SVG 20010904//EN"
 "http://www.w3.org/TR/2001/REC-SVG-20010904/DTD/svg10.dtd">
<svg version="1.0" xmlns="http://www.w3.org/2000/svg"
 width="538.000000pt" height="464.000000pt" viewBox="0 0 538.000000 464.000000"
 preserveAspectRatio="xMidYMid meet">
<metadata>
Created by potrace 1.16, written by Peter Selinger 2001-2019
</metadata>
<g transform="translate(0.000000,464.000000) scale(0.100000,-0.100000)"
fill="#000000" stroke="none">
<path d="M2040 3240 c0 -131 -2 -127 61 -110 42 12 83 53 118 117 17 31 40 56
66 70 37 21 50 23 185 20 l145 -2 3 -312 2 -312 -32 -37 c-42 -47 -105 -75
-172 -77 -70 -1 -111 23 -102 61 19 79 18 97 -4 125 -18 22 -29 27 -66 27
-123 0 -129 -152 -7 -211 40 -20 64 -24 138 -24 78 0 97 4 147 28 32 16 67 40
78 54 l20 26 0 -272 c0 -169 -4 -280 -10 -292 -10 -17 -23 -19 -155 -19 -79 0
-156 5 -172 10 -15 6 -48 34 -73 61 -37 41 -55 53 -99 65 -29 7 -58 11 -62 8
-5 -3 -9 -41 -9 -85 l0 -79 407 0 c249 0 403 4 397 9 -5 5 -22 11 -39 13 l-30
3 -3 609 c-2 481 0 611 10 618 7 4 26 8 41 8 16 0 26 4 22 10 -4 6 -150 10
-406 10 l-399 0 0 -120z"/>
<path d="M2810 2860 c0 -5 11 -10 24 -10 58 0 56 21 56 -615 0 -321 -3 -591
-6 -599 -4 -9 -23 -19 -45 -22 -21 -4 -36 -10 -33 -15 7 -13 291 -11 299 1 4
6 -6 10 -22 11 -48 1 3 15 82 23 160 16 278 112 325 264 26 83 25 157 -1 227
-43 116 -119 177 -284 231 -44 14 -87 28 -95 31 -19 8 -29 10 -57 11 -19 2
-23 8 -23 37 0 19 5 35 11 35 11 0 39 25 39 35 0 3 -11 -2 -25 -11 l-25 -16
-1 108 c0 60 -1 140 -1 177 -2 73 6 87 49 87 12 0 25 5 28 10 4 6 -47 10 -144
10 -94 0 -151 -4 -151 -10z"/>
<path d="M1739 1375 c2 -58 -1 -90 -9 -100 -10 -12 -9 -15 9 -15 20 0 21 5 21
100 0 73 -3 100 -12 100 -10 0 -12 -22 -9 -85z"/>
<path d="M1845 1440 c20 -22 31 -20 22 5 -4 8 -14 15 -23 15 -16 0 -16 -2 1
-20z"/>
<path d="M2826 1452 c-3 -6 -1 -14 5 -17 15 -10 25 3 12 16 -7 7 -13 7 -17 1z"/>
<path d="M2595 1433 c-13 -4 -4 -175 10 -180 6 -2 9 23 7 64 -4 105 -6 120
-17 116z"/>
<path d="M2243 1382 c10 -10 17 -24 17 -30 0 -7 5 -12 10 -12 18 0 11 39 -9
50 -29 15 -36 12 -18 -8z"/>
<path d="M2378 1394 c-14 -13 -9 -134 5 -134 8 0 11 16 9 52 -4 79 -6 91 -14
82z"/>
<path d="M2431 1391 c-11 -7 -9 -10 10 -13 22 -3 24 -8 27 -60 2 -37 7 -58 15
-58 8 0 11 17 9 57 -5 76 -23 98 -61 74z"/>
<path d="M2837 1393 c-11 -10 -8 -133 3 -133 6 0 10 30 10 70 0 70 -1 76 -13
63z"/>
<path d="M3023 1379 c14 -22 27 -25 27 -5 0 7 -9 16 -19 19 -17 4 -18 2 -8
-14z"/>
<path d="M3226 1374 c21 -20 25 -33 22 -65 -4 -46 5 -51 21 -11 16 37 0 79
-34 92 -37 14 -37 13 -9 -16z"/>
<path d="M3367 1393 c-13 -12 -8 -133 6 -133 8 0 11 19 10 66 -2 67 -5 79 -16
67z"/>
<path d="M3421 1391 c-11 -7 -9 -10 10 -13 22 -3 24 -8 27 -60 2 -43 7 -58 17
-58 11 0 15 12 15 43 0 71 -32 112 -69 88z"/>
<path d="M3580 1385 c-8 -9 -8 -15 -2 -15 12 0 26 19 19 26 -2 2 -10 -2 -17
-11z"/>
<path d="M1964 1363 c7 -16 21 -46 30 -68 12 -28 19 -36 25 -26 5 8 -1 30 -16
57 -13 24 -22 48 -18 54 3 5 -3 10 -15 10 -19 0 -20 -2 -6 -27z"/>
<path d="M2177 1372 c-22 -25 -21 -75 1 -95 11 -10 34 -16 53 -16 l34 1 -30 7
c-41 9 -63 50 -48 91 13 35 12 36 -10 12z"/>
<path d="M2964 1382 c-15 -10 -34 -47 -34 -66 0 -30 38 -56 78 -55 l37 2 -34
6 c-45 8 -67 53 -46 94 15 29 15 30 -1 19z"/>
<path d="M3152 1378 c-34 -44 -12 -117 36 -118 7 0 3 9 -9 21 -16 16 -20 30
-17 65 2 24 3 44 2 44 -1 0 -6 -6 -12 -12z"/>
<path d="M3611 1325 c-36 -57 -38 -65 -21 -65 11 0 20 5 20 10 0 6 16 35 35
65 23 37 30 55 21 55 -8 0 -32 -29 -55 -65z"/>
<path d="M1822 1361 c-10 -6 -9 -10 7 -14 14 -3 21 0 21 9 0 16 -9 18 -28 5z"/>
<path d="M1856 1281 c-14 -16 -15 -19 -2 -24 9 -4 16 2 20 16 7 29 3 31 -18 8z"/>
<path d="M3660 1270 c-13 -8 -12 -10 3 -10 9 0 17 5 17 10 0 12 -1 12 -20 0z"/>
</g>
</svg>
